<?xml version="1.0" encoding="UTF-8" standalone="no"?>
<!-- Created with Inkscape (http://www.inkscape.org/) -->

<svg
   width="135.43623mm"
   height="103.13909mm"
   viewBox="0 0 135.43623 103.13909"
   version="1.1"
   id="svg5"
   xml:space="preserve"
   xmlns="http://www.w3.org/2000/svg"
   xmlns:svg="http://www.w3.org/2000/svg"><defs
     id="defs2" /><g
     id="layer1"
     transform="translate(-26.604491,-74.541448)"><path
       style="fill:#f9f9f9;fill-opacity:1;stroke:none;stroke-width:0.264583"
       d="m 131.25653,159.98996 c -2.16244,2.94984 -7.78139,4.54184 -11.1125,5.82083 0.86016,3.20199 3.20014,6.24285 4.9866,8.99583 0.51277,0.79031 1.28773,2.44818 2.2307,2.76833 1.92697,0.65379 6.28439,-1.91505 8.12853,-2.58947 6.68417,-2.44475 13.01671,-5.84729 19.05,-9.59485 1.99787,-1.24089 5.69675,-2.86914 6.90854,-4.94135 0.82338,-1.40785 0.47281,-4.15952 0.50112,-5.75099 0.0738,-4.17115 0.15981,-8.25923 0.004,-12.43541 -0.58129,-15.53184 -4.90617,-30.83163 -11.84751,-44.714589 -2.34474,-4.689474 -4.89188,-9.937485 -8.27087,-13.981271 -1.18983,-1.423988 -3.86424,-2.064597 -5.55123,-2.740157 -5.12603,-2.052744 -10.46427,-3.838813 -15.875,-4.974405 -1.6756,-0.351684 -4.92495,-1.737227 -6.5741,-1.180835 -2.58127,0.870902 -1.97035,7.066094 -5.06888,6.960023 -6.02642,-0.206349 -11.900956,-1.239679 -17.990346,-1.011793 -3.30015,0.123507 -7.91395,1.652164 -11.0953,0.99097 -2.628105,-0.546206 -2.113755,-6.613763 -4.796895,-6.988175 -3.194579,-0.445796 -8.027987,1.571519 -11.095301,2.443718 -4.923366,1.399884 -12.286852,2.830275 -16.330664,6.091529 -2.405935,1.940427 -4.07035,6.172438 -5.588105,8.834147 -4.711331,8.262408 -8.396791,17.043398 -10.998571,26.193748 -2.94218,10.34759 -4.124325,21.0312 -4.124325,31.75 0,2.55376 -0.675246,8.70982 0.919917,10.77436 1.540861,1.99443 4.881416,3.58193 7.017583,4.88739 5.963497,3.64437 12.20888,6.98262 18.785416,9.38794 1.778,0.65034 7.02548,3.61579 8.617214,2.14365 2.202391,-2.03649 3.794389,-5.5356 5.217053,-8.14334 0.39714,-0.72787 1.493309,-1.97935 1.190625,-2.86888 -0.275166,-0.80856 -1.629568,-1.07923 -2.324893,-1.36577 -2.062956,-0.84985 -10.381455,-3.55256 -6.630457,-5.99335 1.276349,-0.83079 3.257019,0.57018 4.51379,1.07289 3.926152,1.57083 8.025341,2.9935 12.170833,3.86345 11.97769,2.5138 23.71116,2.74002 35.718746,0.2106 3.84836,-0.81041 7.71975,-1.99337 11.37708,-3.43826 1.40097,-0.5535 3.77931,-2.15741 5.29167,-1.97961 0.94403,0.11113 1.79863,1.09432 2.64583,1.5031 M 70.402371,117.72515 c 16.199113,-2.17487 18.878553,25.00657 3.175,27.11503 -16.053857,2.1553 -18.84865,-25.01053 -3.175,-27.11503 m 44.979159,0 c 16.25759,-2.18254 18.91453,25.00181 3.175,27.11503 -16.01126,2.14948 -18.834356,-25.01265 -3.175,-27.11503 z"
       id="path3275" /></g></svg>
