<?xml version="1.0" encoding="UTF-8" standalone="no"?>
<!-- Created with Inkscape (http://www.inkscape.org/) -->

<svg
   width="64.913483mm"
   height="64.916763mm"
   viewBox="0 0 64.913483 64.916763"
   version="1.1"
   id="svg5"
   xml:space="preserve"
   xmlns:inkscape="http://www.inkscape.org/namespaces/inkscape"
   xmlns:sodipodi="http://sodipodi.sourceforge.net/DTD/sodipodi-0.dtd"
   xmlns="http://www.w3.org/2000/svg"
   xmlns:svg="http://www.w3.org/2000/svg"><sodipodi:namedview
     id="namedview7"
     pagecolor="#ffffff"
     bordercolor="#000000"
     borderopacity="0.25"
     inkscape:showpageshadow="2"
     inkscape:pageopacity="0.0"
     inkscape:pagecheckerboard="0"
     inkscape:deskcolor="#d1d1d1"
     inkscape:document-units="mm"
     showgrid="false" /><defs
     id="defs2" /><g
     inkscape:label="Camada 1"
     inkscape:groupmode="layer"
     id="layer1"
     transform="translate(-13.6453,-33.5563)"><path
       style="fill:#f9f9f9;fill-opacity:1;stroke-width:0.126848"
       d="m 43.12867,98.330188 c -6.0232,-0.57287 -11.71439,-2.78931 -16.67634,-6.49463 -1.55921,-1.16433 -5.01673,-4.62281 -6.18359,-6.1853 -5.43679,-7.28018 -7.65247,-16.261687 -6.17753,-25.041294 0.91933,-5.47231 3.48888,-11.08166 7.00187,-15.285165 1.32553,-1.586074 3.86221,-4.023841 5.36506,-5.155869 3.44904,-2.598 7.43794,-4.53535 11.46977,-5.570706 11.04593,-2.836543 22.69304,0.215595 30.67976,8.039663 2.9866,2.925775 4.93121,5.599517 6.68633,9.193357 3.41809,6.99901 4.17814,14.964807 2.15783,22.615484 -0.52712,1.99616 -1.15433,3.63695 -2.22653,5.82466 -1.64315,3.35267 -3.22338,5.59719 -5.83302,8.28508 -3.77958,3.89291 -7.92024,6.50585 -13.12693,8.28366 -0.58866,0.201 -1.08813,0.36545 -1.10992,0.36545 -0.0218,0 -0.0396,-5.39421 -0.0396,-11.98713 v -11.98712 h 3.48831 c 1.91858,0 3.48832,-0.0288 3.48832,-0.0639 0,-0.0352 0.22833,-1.818617 0.50739,-3.963277 0.27907,-2.14465 0.50739,-3.971037 0.50739,-4.058637 0,-0.12444 -0.87408,-0.15928 -3.9957,-0.15928 h -3.99571 v -3.15104 c 0,-4.16444 0.16588,-4.72083 1.62037,-5.43508 0.72385,-0.35545 0.73633,-0.3568 3.67553,-0.39681 l 2.94921,-0.0401 v -3.65832 -3.658314 l -1.23677,-0.107025 c -0.68022,-0.05883 -2.57818,-0.103706 -4.21769,-0.09971 -2.65798,0.0065 -3.09086,0.03732 -3.99571,0.284665 -4.30054,1.175614 -6.76834,4.326544 -7.16836,9.152694 -0.0668,0.80536 -0.12228,2.7629 -0.12338,4.35008 l -0.002,2.88579 h -3.49011 -3.4901 l 0.0335,4.027417 0.0335,4.027417 3.45661,0.0337 3.4566,0.0338 v 12.61933 12.61933 l -1.17334,-0.0171 c -0.64534,-0.009 -1.68708,-0.066 -2.31497,-0.12572 z"
       id="path179" /></g></svg>
