<?xml version="1.0" encoding="UTF-8" standalone="no"?>
<!-- Created with Inkscape (http://www.inkscape.org/) -->

<svg
   width="135.41187mm"
   height="86.11528mm"
   viewBox="0 0 135.41187 86.11528"
   version="1.1"
   id="svg5"
   xml:space="preserve"
   xmlns:inkscape="http://www.inkscape.org/namespaces/inkscape"
   xmlns:sodipodi="http://sodipodi.sourceforge.net/DTD/sodipodi-0.dtd"
   xmlns="http://www.w3.org/2000/svg"
   xmlns:svg="http://www.w3.org/2000/svg"><sodipodi:namedview
     id="namedview7"
     pagecolor="#ffffff"
     bordercolor="#000000"
     borderopacity="0.25"
     inkscape:showpageshadow="2"
     inkscape:pageopacity="0.0"
     inkscape:pagecheckerboard="0"
     inkscape:deskcolor="#d1d1d1"
     inkscape:document-units="mm"
     showgrid="false" /><defs
     id="defs2" /><g
     inkscape:label="Camada 1"
     inkscape:groupmode="layer"
     id="layer1"
     transform="translate(-33.98417,-96.23808)"><path
       style="fill:#ffffff;fill-opacity:1;stroke-width:0.264583"
       d="m 38.181925,181.99492 c -3.220028,-1.15071 -4.899013,-4.54646 -3.833732,-7.75372 0.468199,-1.40961 1.786667,-2.86931 3.334973,-3.69221 0.895382,-0.47587 3.0153,-0.49217 64.029174,-0.49217 61.01385,0 63.13377,0.0163 64.02915,0.49217 2.52514,1.34207 3.91526,3.77176 3.61388,6.31641 -0.18368,1.55093 -1.18665,3.38529 -2.2745,4.15991 -1.98997,1.41698 2.03829,1.33557 -65.46795,1.32302 -50.365541,-0.009 -62.659927,-0.0779 -63.430995,-0.35341 z M 38.010953,144.9651 c -2.241392,-0.81289 -4.026784,-3.35444 -4.026784,-5.73223 0,-2.43618 2.012188,-5.2082 4.228164,-5.82479 1.280246,-0.35623 125.734637,-0.35193 127.017277,0.004 1.4113,0.39205 2.99598,1.89176 3.68062,3.48326 1.37309,3.19183 -0.41643,7.14356 -3.67734,8.12055 -1.47624,0.4423 -125.9994,0.3922 -127.221937,-0.0512 z m 0.99513,-36.66827 c -1.267051,-0.2556 -2.074388,-0.70966 -3.236071,-1.82002 -2.75596,-2.6342 -2.137241,-7.35126 1.237942,-9.43798 l 1.295174,-0.80075 h 63.409212 63.40919 l 1.29517,0.80075 c 4.14507,2.5627 3.86953,8.44422 -0.5052,10.7839 l -1.09605,0.58619 -62.44166,0.0374 c -34.342917,0.0205 -62.858384,-0.0467 -63.367707,-0.14945 z"
       id="path179" /></g></svg>
