<?xml version="1.0" encoding="UTF-8" standalone="no"?>
<!-- Created with Inkscape (http://www.inkscape.org/) -->

<svg
   width="135.48476mm"
   height="135.47025mm"
   viewBox="0 0 135.48476 135.47025"
   version="1.1"
   id="svg5"
   xml:space="preserve"
   inkscape:export-filename="youtube.svg"
   inkscape:export-xdpi="96"
   inkscape:export-ydpi="96"
   xmlns:inkscape="http://www.inkscape.org/namespaces/inkscape"
   xmlns:sodipodi="http://sodipodi.sourceforge.net/DTD/sodipodi-0.dtd"
   xmlns="http://www.w3.org/2000/svg"
   xmlns:svg="http://www.w3.org/2000/svg"><sodipodi:namedview
     id="namedview7"
     pagecolor="#ffffff"
     bordercolor="#000000"
     borderopacity="0.25"
     inkscape:showpageshadow="2"
     inkscape:pageopacity="0.0"
     inkscape:pagecheckerboard="0"
     inkscape:deskcolor="#d1d1d1"
     inkscape:document-units="mm"
     showgrid="false" /><defs
     id="defs2" /><g
     inkscape:label="Camada 1"
     inkscape:groupmode="layer"
     id="layer1"
     transform="translate(-25.38091,-63.35351)"><path
       style="fill:#f9f9f9;fill-opacity:1;stroke-width:0.264583"
       d="m 54.626415,198.43968 c -15.252542,-2.13537 -27.12155,-14.28704 -28.951199,-29.64067 -0.392407,-3.29292 -0.392407,-72.11333 0,-75.406244 1.865408,-15.653713 14.091237,-27.879542 29.744949,-29.74495 3.29292,-0.392407 72.113325,-0.392407 75.406245,0 15.65376,1.865414 27.87953,14.091182 29.74494,29.74495 0.39241,3.292914 0.39241,72.113324 0,75.406244 -1.86472,15.648 -14.09694,27.88022 -29.74494,29.74495 -3.62774,0.4323 -73.045815,0.3373 -76.199995,-0.10428 z m 78.978115,-11.87054 c 7.32491,-2.44506 12.54695,-7.6671 14.99201,-14.99201 l 0.7507,-2.24896 V 131.09588 92.863599 l -0.7507,-2.248958 c -2.44506,-7.324913 -7.6671,-12.546949 -14.99201,-14.992005 l -2.24896,-0.750703 H 93.123285 54.890995 l -2.24895,0.750703 c -8.027252,2.679496 -13.790243,9.038262 -15.499838,17.1022 -0.54267,2.559701 -0.54267,74.182404 0,76.742104 1.609762,7.59303 7.292327,14.20923 14.325398,16.67903 3.7477,1.31607 2.24293,1.27263 42.31714,1.22166 l 37.570825,-0.0478 z M 88.493085,164.57301 c -7.18584,-1.00602 -13.40273,-4.00833 -18.62893,-8.99643 -6.07224,-5.7956 -9.50398,-12.8505 -10.37848,-21.33585 -0.98978,-9.60383 2.37074,-19.29387 9.15692,-26.40398 11.92413,-12.493291 30.91664,-14.092681 44.765295,-3.76976 4.95685,3.69489 9.17739,9.28861 11.33656,15.025 2.99117,7.94682 2.86859,17.02604 -0.33569,24.8622 -3.45514,8.44967 -10.75553,15.55366 -19.28159,18.76286 -5.316705,2.0012 -11.037425,2.6395 -16.634085,1.85596 z m 11.24479,-11.90146 c 7.226105,-2.31272 12.580685,-7.66033 14.980565,-14.96108 0.68857,-2.09472 0.73927,-2.54837 0.73927,-6.61459 0,-4.06621 -0.0507,-4.51986 -0.73927,-6.61458 -2.39679,-7.29134 -7.68923,-12.58379 -14.980565,-14.98057 -2.09472,-0.68857 -2.54837,-0.73927 -6.61459,-0.73927 -4.06621,0 -4.51986,0.0507 -6.61458,0.73927 -7.29134,2.39678 -12.58378,7.68923 -14.98057,14.98057 -0.68857,2.09472 -0.73927,2.54837 -0.73927,6.61458 0,4.06622 0.0507,4.51987 0.73927,6.61459 2.63765,8.02409 8.6927,13.55369 16.96495,15.49275 1.09321,0.25625 2.74082,0.34347 5.29166,0.28011 3.1416,-0.078 4.04573,-0.20132 5.95313,-0.81178 z m 26.855195,-50.53359 c -5.4978,-2.292064 -6.89244,-9.463416 -2.66292,-13.692933 1.33329,-1.333288 2.62189,-1.987707 4.49112,-2.280831 5.82264,-0.913081 10.67752,3.993089 9.63194,9.733719 -0.48976,2.688951 -2.10505,4.820735 -4.61561,6.091425 -1.92002,0.97179 -4.72399,1.03267 -6.84453,0.14862 z"
       id="path1517" /></g></svg>
