<?xml version="1.0" encoding="UTF-8" standalone="no"?>
<!-- Created with Inkscape (http://www.inkscape.org/) -->

<svg
   width="132.41338mm"
   height="135.47729mm"
   viewBox="0 0 132.41338 135.47729"
   version="1.1"
   id="svg5"
   xml:space="preserve"
   inkscape:export-filename="instagram.svg"
   inkscape:export-xdpi="96"
   inkscape:export-ydpi="96"
   xmlns:inkscape="http://www.inkscape.org/namespaces/inkscape"
   xmlns:sodipodi="http://sodipodi.sourceforge.net/DTD/sodipodi-0.dtd"
   xmlns="http://www.w3.org/2000/svg"
   xmlns:svg="http://www.w3.org/2000/svg"><sodipodi:namedview
     id="namedview7"
     pagecolor="#ffffff"
     bordercolor="#000000"
     borderopacity="0.25"
     inkscape:showpageshadow="2"
     inkscape:pageopacity="0.0"
     inkscape:pagecheckerboard="0"
     inkscape:deskcolor="#d1d1d1"
     inkscape:document-units="mm"
     showgrid="false" /><defs
     id="defs2" /><g
     inkscape:label="Camada 1"
     inkscape:groupmode="layer"
     id="layer1"
     transform="translate(-59.012487,-52.502615)"><path
       style="fill:#f9f9f9;fill-opacity:1;stroke-width:0.264583"
       d="m 59.384558,187.52207 c 41.041362,-47.72793 51.106152,-59.48953 51.106152,-59.72213 0,-0.15601 -11.369342,-16.83192 -25.265202,-37.057573 C 71.329638,70.516714 59.747048,53.64103 59.486398,53.240848 l -0.47391,-0.727604 h 19.6958 19.6958 l 17.045572,24.855891 c 9.37506,13.67074 17.11894,24.832845 17.20863,24.804685 0.0897,-0.0282 9.47692,-10.88589 20.8605,-24.128286 11.38359,-13.242395 21.01848,-24.406895 21.41088,-24.810001 l 0.71344,-0.73292 5.70469,0.07146 5.70469,0.07146 -24.57451,28.56215 c -13.51598,15.709182 -24.52584,28.686997 -24.46634,28.839587 0.0595,0.15258 11.88877,17.42243 26.28728,38.37743 14.39851,20.955 26.39237,38.42742 26.65303,38.8276 l 0.47392,0.72761 h -19.69501 -19.695 l -17.97241,-26.18477 c -9.88481,-14.40162 -18.09146,-26.15067 -18.23698,-26.10899 -0.14552,0.0417 -10.35015,11.79504 -22.676952,26.11861 l -22.41237,26.04285 -5.8776,0.0713 c -5.60133,0.068 -5.85867,0.0493 -5.47499,-0.39687 z M 157.54892,153.89818 C 147.69845,139.8099 129.10194,113.20224 116.22335,94.770034 l -23.415632,-33.513087 -8.92968,-0.0062 c -4.91133,-0.0034 -8.92969,0.04496 -8.92969,0.107523 0,0.113533 80.716402,115.66495 81.934422,117.2951 l 0.6425,0.8599 h 8.9668 8.9668 z"
       id="path2758" /></g></svg>
