<?xml version="1.0" encoding="UTF-8" standalone="no"?>
<!-- Created with Inkscape (http://www.inkscape.org/) -->

<svg
   width="108.41015mm"
   height="77.236992mm"
   viewBox="0 0 108.41015 77.236992"
   version="1.1"
   id="svg5"
   xml:space="preserve"
   inkscape:export-filename="facebook.svg"
   inkscape:export-xdpi="96"
   inkscape:export-ydpi="96"
   xmlns:inkscape="http://www.inkscape.org/namespaces/inkscape"
   xmlns:sodipodi="http://sodipodi.sourceforge.net/DTD/sodipodi-0.dtd"
   xmlns="http://www.w3.org/2000/svg"
   xmlns:svg="http://www.w3.org/2000/svg"><sodipodi:namedview
     id="namedview7"
     pagecolor="#ffffff"
     bordercolor="#000000"
     borderopacity="0.25"
     inkscape:showpageshadow="2"
     inkscape:pageopacity="0.0"
     inkscape:pagecheckerboard="0"
     inkscape:deskcolor="#d1d1d1"
     inkscape:document-units="mm"
     showgrid="false" /><defs
     id="defs2" /><g
     inkscape:label="Camada 1"
     inkscape:groupmode="layer"
     id="layer1"
     transform="translate(-12.242825,-89.324514)"><path
       style="fill:#f9f9f9;fill-opacity:1;stroke-width:0.264583"
       d="M 29.013516,166.16446 C 21.285487,164.71049 15.108374,158.995 12.938443,151.2907 c -0.570099,-2.02413 -0.581784,-2.41036 -0.666666,-22.03628 -0.09306,-21.51611 -0.02903,-22.89348 1.229469,-26.44986 0.997878,-2.819889 2.201679,-4.767849 4.372527,-7.075528 2.630206,-2.795989 5.013068,-4.30762 9.023077,-5.724027 1.58402,-0.559506 1.6687,-0.560909 38.629163,-0.640241 41.894707,-0.08992 38.940467,-0.228971 43.676747,2.055757 6.05285,2.919819 10.33051,8.884759 11.22591,15.653849 0.1975,1.4931 0.26291,8.6474 0.20279,22.18005 -0.0871,19.60282 -0.0996,20.01454 -0.6674,22.03628 -2.22558,7.92395 -8.7016,13.72648 -16.73492,14.99451 -2.76914,0.4371 -71.847963,0.32471 -74.215624,-0.12075 z m 37.929747,-30.16023 c 7.44244,-4.36402 13.531713,-7.99674 13.531713,-8.07272 0,-0.11014 -25.313974,-15.05561 -27.686918,-16.34647 l -0.623501,-0.33918 v 16.68565 16.68565 l 0.623501,-0.33918 c 0.342926,-0.18655 6.71277,-3.90974 14.155205,-8.27375 z"
       id="path892" /></g></svg>
