<?xml version="1.0" encoding="UTF-8" standalone="no"?>
<!-- Created with Inkscape (http://www.inkscape.org/) -->

<svg
   width="33.602089mm"
   height="10.691574mm"
   viewBox="0 0 33.602089 10.691574"
   version="1.1"
   id="svg5"
   xml:space="preserve"
   xmlns:inkscape="http://www.inkscape.org/namespaces/inkscape"
   xmlns:sodipodi="http://sodipodi.sourceforge.net/DTD/sodipodi-0.dtd"
   xmlns="http://www.w3.org/2000/svg"
   xmlns:svg="http://www.w3.org/2000/svg"><sodipodi:namedview
     id="namedview7"
     pagecolor="#ffffff"
     bordercolor="#000000"
     borderopacity="0.25"
     inkscape:showpageshadow="2"
     inkscape:pageopacity="0.0"
     inkscape:pagecheckerboard="0"
     inkscape:deskcolor="#d1d1d1"
     inkscape:document-units="mm"
     showgrid="false" /><defs
     id="defs2" /><g
     inkscape:label="Camada 1"
     inkscape:groupmode="layer"
     id="layer1"
     transform="translate(-23.905032,-128.64364)"><g
       id="g3772"
       transform="matrix(0.26458333,0,0,0.26458333,-103.46378,64.541946)"><path
         d="m 501.94485,278.87322 -1.84727,-4.73363 17.78,0.92363 -0.80818,7.62 z m 4.27182,-36.59909 -24.82273,11.77636 3.81,17.66455 h 5.08 l -0.80818,-12.7 0.69273,-0.23091 3.11727,12.93091 h 5.19545 l -0.11545,-15.47091 0.69273,-0.23091 2.65545,15.70182 h 5.65728 l 1.26999,-18.58818 0.80818,-0.34637 1.38546,18.93455 h 7.27364 l 2.65545,-25.86182 z m 98.02092,36.02182 -7.04274,-1.15455 v -0.92363 l 6.81183,-0.23091 -0.11546,-1.73182 h -8.6591 l -0.46181,4.38727 7.15819,1.27 v 0.80818 l -7.50455,0.34637 -0.23091,1.61636 h 10.50636 z m -67.42546,-0.69273 -0.11546,1.61637 2.54,0.11545 v 1.61636 l -5.42636,-0.11545 0.23091,-4.73364 7.38909,-0.11545 -0.11546,-1.73182 h -9.58272 l -0.80819,8.42818 h 10.85273 l -0.23091,-5.19545 z m 46.06636,3.11727 v -1.5009 l 5.08,-0.11546 v -1.61636 l -5.19545,-0.11546 v -1.5009 l 6.81182,-0.11546 v -1.73182 h -9.23637 l -0.2309,8.65909 h 9.69818 l -0.11546,-1.73182 z m -7.38909,1.96273 -0.92363,-8.54363 h -2.42455 l -3.57909,4.04091 -3.57909,-4.04091 h -2.42455 l -0.80818,8.54363 h 2.88636 l 0.23091,-5.54182 3.69455,3.81 3.69455,-3.81 0.2309,5.54182 z M 563.25122,242.8514 h -5.77273 l -0.46181,26.43909 h 6.92727 z m 23.55273,0 h -18.01091 l -0.69273,26.43909 h 19.97364 z m -5.54182,20.66637 -6.35,0.23091 -0.34637,-15.58637 6.69637,0.23091 z m 27.13181,-14.89364 -0.69271,-5.77273 h -17.78001 l 0.23091,5.08 5.65727,0.23091 0.57727,21.12818 h 7.04274 l -2.07819,-20.89727 z m -62.23,20.66636 h 7.62 l -4.96454,-11.89181 3.92545,-2.19364 -2.65545,-12.35364 h -19.39637 l -0.69273,5.77273 4.38728,-0.11546 -2.07818,20.89728 h 6.81181 l 0.23091,-6.69636 4.8491,-2.65546 z m -6.46545,-21.12818 5.54182,-0.11545 0.69272,5.31091 -6.46545,3.00181 z m 15.00909,34.52091 h 2.88636 l -2.30909,-8.54363 h -6.92727 l -2.30909,8.54363 h 2.88636 l 0.46182,-2.19363 4.73364,0.11545 z m -4.84909,-3.81 0.57727,-2.77091 2.77091,-0.11545 0.57727,2.77091 z"
         id="path2-7"
         style="fill:#737373;fill-opacity:1;stroke-width:1.15455"
         inkscape:connector-curvature="0"
         inkscape:export-filename="G:\Users\suitedoalex\sites\riot-games-logo-5.png"
         inkscape:export-xdpi="65.722404"
         inkscape:export-ydpi="65.722404" /></g></g></svg>
