<?xml version="1.0" encoding="UTF-8" standalone="no"?>
<!-- Created with Inkscape (http://www.inkscape.org/) -->

<svg
   width="148.30771mm"
   height="98.042412mm"
   viewBox="0 0 148.30771 98.042412"
   version="1.1"
   id="svg5"
   xml:space="preserve"
   inkscape:export-filename="bitmap.svg"
   inkscape:export-xdpi="96"
   inkscape:export-ydpi="96"
   sodipodi:docname="Valorant logo.svg"
   inkscape:version="1.2.2 (732a01da63, 2022-12-09)"
   xmlns:inkscape="http://www.inkscape.org/namespaces/inkscape"
   xmlns:sodipodi="http://sodipodi.sourceforge.net/DTD/sodipodi-0.dtd"
   xmlns="http://www.w3.org/2000/svg"
   xmlns:svg="http://www.w3.org/2000/svg"><sodipodi:namedview
     id="namedview7"
     pagecolor="#ffffff"
     bordercolor="#000000"
     borderopacity="0.25"
     inkscape:showpageshadow="2"
     inkscape:pageopacity="0.0"
     inkscape:pagecheckerboard="0"
     inkscape:deskcolor="#d1d1d1"
     inkscape:document-units="mm"
     showgrid="false"
     inkscape:zoom="1.7730209"
     inkscape:cx="265.6483"
     inkscape:cy="172.58679"
     inkscape:window-width="1600"
     inkscape:window-height="837"
     inkscape:window-x="-8"
     inkscape:window-y="-8"
     inkscape:window-maximized="1"
     inkscape:current-layer="layer1" /><defs
     id="defs2" /><g
     inkscape:label="Camada 1"
     inkscape:groupmode="layer"
     id="layer1"
     transform="translate(-36.142041,-62.181921)"><path
       style="fill:#ffffff;stroke-width:0.0451957;fill-opacity:1"
       d="m 93.126989,160.19686 c -2.60368,-0.26999 -4.878797,-1.36669 -6.666948,-3.21373 -1.610839,-1.6639 -2.604521,-3.73901 -2.91902,-6.0958 -0.09197,-0.68922 -0.07079,-2.07658 0.04318,-2.82754 0.171884,-1.13261 0.490215,-2.14203 1.00095,-3.17398 1.608651,-3.25033 4.725154,-5.42681 8.364847,-5.84179 0.701962,-0.08 2.270331,-0.0347 2.933931,0.0848 1.753766,0.31587 3.253957,0.96974 4.673551,2.03704 0.53069,0.39898 1.42418,1.27048 1.83476,1.78959 0.70199,0.88754 1.40032,2.14731 1.73924,3.13757 1.16291,3.39775 0.60095,7.03102 -1.52975,9.89038 -0.44875,0.60223 -1.49122,1.65303 -2.06264,2.07914 -1.493666,1.11382 -3.160168,1.81325 -4.926801,2.06775 -0.609478,0.0878 -1.937396,0.12335 -2.4853,0.0665 z m 2.313976,-3.70379 c 1.229189,-0.26015 2.359294,-0.85572 3.261677,-1.71891 1.165503,-1.11487 1.871208,-2.44214 2.138458,-4.02188 0.10678,-0.63123 0.0964,-1.7346 -0.0226,-2.39591 -0.42974,-2.38829 -2.073892,-4.44125 -4.232887,-5.28537 -2.548479,-0.9964 -5.303018,-0.42097 -7.232433,1.5109 -0.601785,0.60254 -0.983838,1.13258 -1.336108,1.85365 -0.303457,0.62114 -0.46133,1.0705 -0.586233,1.66863 -0.504471,2.41576 0.19675,4.79553 1.919245,6.51344 1.117153,1.11418 2.386506,1.75123 3.912527,1.96357 0.478478,0.0666 1.676409,0.0181 2.178388,-0.0881 z m -59.065876,3.20832 c -0.05448,-0.0227 -0.130885,-0.0898 -0.169787,-0.14918 -0.06372,-0.0973 -0.06958,-1.08746 -0.05913,-9.99468 l 0.0116,-9.88673 0.106697,-0.0864 c 0.10073,-0.0816 0.199658,-0.0864 1.768926,-0.0864 1.569256,0 1.668195,0.005 1.768925,0.0864 l 0.106697,0.0864 0.0226,6.99803 0.0226,6.99804 5.587785,-6.9875 c 4.923046,-6.15624 5.611606,-6.99903 5.788023,-7.08443 0.196048,-0.0949 0.244759,-0.0969 2.327233,-0.0969 2.304863,0 2.252537,-0.006 2.22042,0.24284 -0.0089,0.0688 -3.073672,3.94073 -7.864724,9.93601 -6.367168,7.96755 -7.886938,9.84435 -8.04484,9.93476 l -0.19468,0.11147 -1.649644,0.01 c -0.916761,0.005 -1.693651,-0.009 -1.7487,-0.0315 z m 10.073433,-0.0263 c -0.06962,-0.0492 -0.09966,-0.10982 -0.09039,-0.18232 0.01617,-0.12652 15.239185,-19.19597 15.560315,-19.49198 0.115851,-0.10679 0.346489,-0.25852 0.512528,-0.33718 l 0.30189,-0.14303 1.576065,-0.014 1.576065,-0.014 0.107476,0.10097 0.107475,0.10096 v 9.91259 c 0,9.80976 -9.49e-4,9.91351 -0.08924,10.00183 -0.04908,0.0491 -0.135759,0.10091 -0.19262,0.11518 -0.05686,0.0143 -0.825138,0.0199 -1.707286,0.0125 l -1.603911,-0.0135 -0.203381,-0.11298 c -0.168424,-0.0936 -0.674616,-0.70149 -2.945063,-3.53693 l -2.741682,-3.42394 -2.732543,3.42394 c -2.198962,2.75535 -2.771175,3.446 -2.930382,3.53693 l -0.197838,0.11298 -2.101601,0.0129 c -1.883882,0.0115 -2.112404,0.005 -2.205872,-0.0609 z m 15.844106,-12.28429 -0.01172,-2.23792 -1.762633,2.21386 c -0.969448,1.21763 -1.757318,2.234 -1.750822,2.25861 0.0065,0.0246 0.799681,1.03264 1.762633,2.24005 l 1.750822,2.19531 0.01172,-2.216 c 0.0064,-1.2188 0.0064,-3.22306 0,-4.45391 z m 8.620661,12.30315 c -0.04971,-0.0274 -0.115814,-0.0818 -0.146886,-0.12072 -0.04481,-0.0562 -0.05649,-2.1195 -0.05649,-9.97476 v -9.90395 l 0.104605,-0.0983 c 0.103557,-0.0973 0.121229,-0.0983 1.773932,-0.0968 1.798094,0.002 1.778362,-9.9e-4 1.870932,0.24247 0.03187,0.0838 0.04697,2.73861 0.04697,8.25584 v 8.13228 h 4.29255 4.292554 l 0.07444,0.11361 c 0.071,0.10835 0.0691,0.12139 -0.04098,0.28247 -0.06348,0.0929 -0.620212,0.79933 -1.237183,1.5699 -0.888901,1.11019 -1.163989,1.42449 -1.325148,1.51405 l -0.203381,0.11303 -4.677757,0.0104 c -3.345808,0.007 -4.703497,-0.004 -4.76815,-0.0395 z m 37.460791,0.007 c -0.0533,-0.0215 -0.12954,-0.0858 -0.16949,-0.14278 -0.0662,-0.0945 -0.0726,-0.97754 -0.0726,-9.92596 0,-10.49357 -0.01,-10.02357 0.2054,-10.10606 0.0402,-0.0154 3.63729,-0.0281 7.99345,-0.0281 h 7.92027 l 0.0983,0.1046 0.0983,0.1046 -5.4e-4,2.32467 -5.4e-4,2.32467 -0.10429,0.18236 c -0.0574,0.1003 -1.16986,1.51379 -2.47222,3.1411 -1.30234,1.62731 -2.36768,2.98925 -2.36741,3.02654 4.5e-4,0.0373 1.55025,2.00628 3.44445,4.37555 1.89418,2.36927 3.44638,4.3319 3.44934,4.36139 0.0115,0.11563 -0.0147,0.1916 -0.0849,0.24571 -0.0561,0.0433 -0.54499,0.0564 -2.08718,0.0562 -2.08844,-4.5e-4 -2.25231,-0.0129 -2.50541,-0.19278 -0.15556,-0.11057 -6.96515,-8.61138 -7.00909,-8.74987 -0.0168,-0.0529 -0.0169,-0.13917 -4.6e-4,-0.19165 0.0167,-0.0525 0.5611,-0.75922 1.2099,-1.57055 0.64879,-0.81133 1.97844,-2.4768 2.95478,-3.70104 l 1.77517,-2.22589 h -4.36049 -4.36048 l -0.001,8.19173 c -0.001,6.36812 -0.0137,8.20769 -0.0565,8.26344 -0.12926,0.16835 -0.21921,0.17692 -1.82602,0.174 -0.86543,-0.002 -1.6171,-0.0204 -1.67037,-0.0419 z m 21.42924,-0.006 c -0.0497,-0.0278 -0.11582,-0.0825 -0.14689,-0.12141 -0.0448,-0.0562 -0.0565,-2.1195 -0.0565,-9.97476 v -9.90395 l 0.10626,-0.0998 0.10625,-0.0998 1.73547,0.0129 c 1.72218,0.0127 1.73675,0.0136 1.90285,0.11693 0.21272,0.13227 15.87044,19.71194 15.89113,19.87155 0.01,0.0748 -0.0203,0.13071 -0.097,0.18095 -0.0988,0.0647 -0.34195,0.0713 -2.20602,0.0593 l -2.095,-0.0134 -0.19777,-0.11298 c -0.15908,-0.0909 -0.73225,-0.78275 -2.93029,-3.53705 l -2.73252,-3.42405 -2.74177,3.42405 c -2.27054,2.83554 -2.77674,3.44348 -2.94516,3.53705 l -0.20338,0.11298 -1.64965,0.0111 c -1.15236,0.008 -1.67689,-0.004 -1.74003,-0.0395 z m 5.41837,-7.89869 c 1.1186,-1.40185 1.73144,-2.20519 1.70668,-2.23719 -0.0212,-0.0275 -0.82463,-1.03367 -1.78531,-2.23604 l -1.74668,-2.18612 v 4.46624 c 0,2.5932 0.0168,4.44824 0.04,4.42331 0.022,-0.0236 0.82539,-1.0272 1.78531,-2.2302 z m 26.60837,7.90525 c -0.0839,-0.0203 -0.23177,-0.0948 -0.32852,-0.16567 -0.10084,-0.0738 -2.53797,-3.0871 -5.71153,-7.06168 l -5.53563,-6.93286 v 4.08677 c 0,3.6257 -0.008,4.0981 -0.0703,4.18722 -0.0993,0.14182 -0.25048,0.12479 -0.41222,-0.0464 -0.30244,-0.32019 -3.19433,-3.99238 -3.26307,-4.14353 -0.0663,-0.14571 -0.0734,-0.63341 -0.0734,-5.02756 v -4.86619 l 0.11098,-0.11813 0.11097,-0.11813 1.74542,0.0128 1.74543,0.0128 0.17741,0.12027 c 0.11574,0.0785 2.10197,2.5322 5.71389,7.05881 3.04506,3.81621 5.55173,6.93992 5.57037,6.94157 0.0186,0.002 0.0339,-3.12997 0.0339,-6.95918 v -6.96219 l 0.11093,-0.11094 0.11094,-0.11093 h 1.67429 c 1.60685,0 1.67789,0.004 1.76354,0.0892 0.0491,0.0491 0.10045,0.13552 0.11415,0.19208 0.0137,0.0566 0.0193,4.52072 0.0125,9.92036 l -0.0125,9.81752 -0.1029,0.10294 -0.10289,0.10294 -1.61455,0.007 c -0.88799,0.004 -1.68321,-0.009 -1.76715,-0.0294 z m 12.14614,-0.0229 c -0.0654,-0.036 -0.12967,-0.0935 -0.14279,-0.12769 -0.0131,-0.0342 -0.0389,-3.74651 -0.0572,-8.24958 l -0.0334,-8.18741 h -2.63871 c -2.88611,0 -2.88502,0 -2.99139,-0.25669 -0.0401,-0.0968 -0.0513,-0.53341 -0.0417,-1.62902 l 0.0131,-1.4968 0.10957,-0.11657 0.10956,-0.11657 h 6.64423 6.64422 l 0.19916,0.0964 c 0.16689,0.0808 0.38747,0.33154 1.36174,1.54795 0.63943,0.79835 1.19857,1.50648 1.24253,1.57362 0.0989,0.151 0.0609,0.29673 -0.0926,0.35507 -0.0665,0.0253 -1.46323,0.0426 -3.43373,0.0426 h -3.32168 l 0.014,8.20164 0.014,8.20163 -0.1029,0.10308 -0.10289,0.10308 -1.63714,0.0104 c -1.35919,0.009 -1.65733,-7.7e-4 -1.75607,-0.0551 z M 96.200299,122.75602 c -0.292538,-0.0815 -0.626558,-0.26502 -0.843827,-0.46354 -0.16773,-0.15326 -23.463624,-29.246375 -23.856506,-29.793235 -0.08738,-0.12163 -0.20428,-0.34025 -0.259785,-0.48583 l -0.100913,-0.2647 -0.01178,-14.56463 c -0.01294,-16.008143 -0.03421,-14.795853 0.262284,-14.949178 0.195757,-0.10123 0.399499,-0.05639 0.571351,0.125756 0.07598,0.08053 10.879281,13.57465 24.007342,29.986932 20.050895,25.067015 23.869195,29.862575 23.869195,29.978325 0,0.18873 -0.10509,0.37607 -0.24732,0.44087 -0.17696,0.0806 -23.099968,0.0701 -23.390043,-0.0108 z m 16.648611,-20.53399 c -0.14397,-0.11693 -0.20887,-0.27406 -0.17895,-0.43332 0.0189,-0.10048 4.62977,-5.896505 15.73529,-19.779675 8.63974,-10.800648 15.74848,-19.678219 15.79721,-19.727934 0.0629,-0.06419 0.14826,-0.09039 0.29443,-0.09039 0.17537,0 0.22535,0.02184 0.33771,0.1476 l 0.13188,0.147599 -5.4e-4,14.563611 c -5.9e-4,15.518324 0.0102,14.732064 -0.20819,15.196344 -0.10694,0.22734 -7.38878,9.338185 -7.65302,9.575255 -0.107,0.096 -0.32925,0.23836 -0.49388,0.31637 l -0.29935,0.14183 -11.6831,0.0105 c -11.02328,0.01 -11.68854,0.006 -11.7795,-0.0678 z"
       id="path179" /></g></svg>
