<svg xmlns="http://www.w3.org/2000/svg" xmlns:xlink="http://www.w3.org/1999/xlink" width="342" zoomAndPan="magnify" viewBox="0 0 256.5 37.5" height="50" preserveAspectRatio="xMidYMid meet" version="1.0"><defs><clipPath id="d648290257"><path d="M 1.441406 0 L 254.566406 0 L 254.566406 36.484375 L 1.441406 36.484375 Z M 1.441406 0 " clip-rule="nonzero"/></clipPath></defs><g clip-path="url(#d648290257)"><path fill="#ffffff" d="M 98.699219 36.300781 C 94.257812 35.839844 90.375 33.972656 87.320312 30.824219 C 84.570312 27.992188 82.875 24.457031 82.339844 20.441406 C 82.183594 19.269531 82.21875 16.90625 82.414062 15.625 C 82.707031 13.695312 83.25 11.976562 84.121094 10.21875 C 86.867188 4.683594 92.1875 0.976562 98.398438 0.269531 C 99.597656 0.132812 102.273438 0.210938 103.40625 0.414062 C 106.398438 0.953125 108.960938 2.066406 111.382812 3.882812 C 112.289062 4.5625 113.8125 6.046875 114.511719 6.933594 C 115.710938 8.445312 116.902344 10.589844 117.480469 12.277344 C 119.464844 18.0625 118.507812 24.253906 114.871094 29.121094 C 114.105469 30.148438 112.324219 31.9375 111.351562 32.664062 C 108.800781 34.5625 105.957031 35.753906 102.941406 36.1875 C 101.902344 36.335938 99.636719 36.394531 98.699219 36.300781 Z M 102.648438 29.992188 C 104.746094 29.546875 106.675781 28.53125 108.214844 27.0625 C 110.207031 25.164062 111.410156 22.902344 111.867188 20.210938 C 112.046875 19.136719 112.03125 17.257812 111.828125 16.132812 C 111.09375 12.0625 108.289062 8.566406 104.601562 7.128906 C 100.253906 5.429688 95.550781 6.410156 92.257812 9.703125 C 91.230469 10.730469 90.578125 11.632812 89.980469 12.859375 C 89.460938 13.917969 89.191406 14.683594 88.976562 15.703125 C 88.117188 19.816406 89.3125 23.871094 92.253906 26.796875 C 94.160156 28.695312 96.328125 29.777344 98.929688 30.140625 C 99.75 30.253906 101.792969 30.171875 102.648438 29.992188 Z M 1.839844 35.457031 C 1.746094 35.417969 1.613281 35.300781 1.546875 35.203125 C 1.441406 35.035156 1.429688 33.347656 1.449219 18.175781 L 1.46875 1.335938 L 1.648438 1.191406 C 1.820312 1.050781 1.992188 1.042969 4.667969 1.042969 C 7.347656 1.042969 7.515625 1.050781 7.6875 1.191406 L 7.871094 1.335938 L 7.910156 13.257812 L 7.945312 25.175781 L 17.484375 13.273438 C 25.886719 2.789062 27.0625 1.351562 27.363281 1.207031 C 27.699219 1.046875 27.78125 1.042969 31.335938 1.042969 C 35.269531 1.042969 35.179688 1.03125 35.125 1.457031 C 35.109375 1.574219 29.878906 8.167969 21.703125 18.378906 C 10.835938 31.953125 8.242188 35.148438 7.972656 35.300781 L 7.640625 35.492188 L 4.824219 35.507812 C 3.257812 35.519531 1.933594 35.492188 1.839844 35.457031 Z M 19.03125 35.410156 C 18.914062 35.328125 18.859375 35.222656 18.878906 35.101562 C 18.90625 34.882812 44.886719 2.402344 45.433594 1.898438 C 45.632812 1.71875 46.027344 1.457031 46.308594 1.324219 L 46.824219 1.082031 L 49.515625 1.058594 L 52.203125 1.035156 L 52.570312 1.378906 L 52.570312 18.261719 C 52.570312 34.96875 52.570312 35.148438 52.417969 35.296875 C 52.335938 35.382812 52.1875 35.46875 52.089844 35.492188 C 51.992188 35.519531 50.683594 35.527344 49.175781 35.515625 L 46.4375 35.492188 L 46.09375 35.300781 C 45.804688 35.140625 44.941406 34.105469 41.066406 29.273438 L 36.386719 23.445312 L 31.722656 29.273438 C 27.96875 33.96875 26.992188 35.144531 26.722656 35.300781 L 26.382812 35.492188 L 22.796875 35.515625 C 19.582031 35.535156 19.191406 35.523438 19.03125 35.410156 Z M 46.074219 14.488281 L 46.054688 10.675781 L 43.046875 14.445312 C 41.390625 16.519531 40.046875 18.25 40.058594 18.292969 C 40.066406 18.335938 41.421875 20.050781 43.066406 22.109375 L 46.054688 25.847656 L 46.074219 22.074219 C 46.085938 19.996094 46.085938 16.582031 46.074219 14.488281 Z M 60.785156 35.441406 C 60.703125 35.394531 60.589844 35.304688 60.535156 35.238281 C 60.460938 35.140625 60.441406 31.625 60.441406 18.246094 L 60.441406 1.378906 L 60.617188 1.210938 C 60.792969 1.042969 60.824219 1.042969 63.644531 1.046875 C 66.714844 1.046875 66.679688 1.042969 66.839844 1.457031 C 66.894531 1.601562 66.917969 6.121094 66.917969 15.519531 L 66.917969 29.371094 L 81.570312 29.371094 L 81.699219 29.566406 C 81.820312 29.75 81.816406 29.773438 81.628906 30.046875 C 81.519531 30.203125 80.570312 31.410156 79.515625 32.722656 C 78 34.613281 77.53125 35.148438 77.253906 35.300781 L 76.910156 35.492188 L 68.925781 35.511719 C 63.214844 35.523438 60.898438 35.503906 60.785156 35.441406 Z M 124.722656 35.453125 C 124.632812 35.417969 124.5 35.308594 124.433594 35.210938 C 124.320312 35.050781 124.308594 33.546875 124.308594 18.304688 C 124.308594 0.429688 124.292969 1.230469 124.660156 1.089844 C 124.730469 1.066406 130.867188 1.042969 138.304688 1.042969 L 151.820312 1.042969 L 151.988281 1.222656 L 152.15625 1.398438 L 152.15625 9.320312 L 151.976562 9.628906 C 151.878906 9.800781 149.980469 12.207031 147.757812 14.980469 C 145.535156 17.75 143.714844 20.070312 143.714844 20.132812 C 143.71875 20.199219 146.363281 23.550781 149.59375 27.585938 C 152.828125 31.621094 155.476562 34.964844 155.484375 35.015625 C 155.503906 35.214844 155.457031 35.34375 155.335938 35.433594 C 155.242188 35.507812 154.40625 35.53125 151.777344 35.53125 C 148.210938 35.53125 147.929688 35.507812 147.5 35.203125 C 147.234375 35.011719 135.613281 20.535156 135.535156 20.296875 C 135.507812 20.207031 135.507812 20.0625 135.535156 19.972656 C 135.5625 19.882812 136.492188 18.679688 137.601562 17.296875 C 138.707031 15.914062 140.976562 13.078125 142.644531 10.992188 L 145.671875 7.203125 L 130.789062 7.203125 L 130.789062 21.15625 C 130.785156 32 130.765625 35.132812 130.691406 35.230469 C 130.46875 35.515625 130.316406 35.53125 127.574219 35.527344 C 126.097656 35.523438 124.816406 35.492188 124.722656 35.453125 Z M 161.296875 35.445312 C 161.210938 35.398438 161.101562 35.304688 161.046875 35.238281 C 160.96875 35.140625 160.949219 31.628906 160.949219 18.246094 L 160.949219 1.378906 L 161.132812 1.207031 L 161.3125 1.039062 L 164.273438 1.058594 C 167.214844 1.082031 167.238281 1.082031 167.523438 1.257812 C 167.886719 1.484375 194.609375 34.835938 194.644531 35.105469 C 194.660156 35.234375 194.609375 35.328125 194.480469 35.414062 C 194.3125 35.523438 193.894531 35.535156 190.714844 35.515625 L 187.136719 35.492188 L 186.800781 35.300781 C 186.53125 35.144531 185.550781 33.96875 181.800781 29.277344 L 177.136719 23.445312 L 172.457031 29.277344 C 168.582031 34.105469 167.71875 35.140625 167.429688 35.300781 L 167.082031 35.492188 L 164.265625 35.511719 C 162.300781 35.527344 161.40625 35.503906 161.296875 35.445312 Z M 170.546875 21.992188 C 172.453125 19.601562 173.5 18.234375 173.457031 18.179688 C 173.421875 18.132812 172.050781 16.417969 170.410156 14.371094 L 167.429688 10.648438 L 167.429688 18.253906 C 167.429688 22.671875 167.457031 25.832031 167.5 25.789062 C 167.535156 25.75 168.90625 24.039062 170.546875 21.992188 Z M 215.960938 35.457031 C 215.816406 35.421875 215.5625 35.292969 215.398438 35.171875 C 215.226562 35.046875 211.066406 29.914062 205.648438 23.144531 L 196.203125 11.335938 L 196.203125 18.296875 C 196.203125 24.472656 196.1875 25.277344 196.082031 25.429688 C 195.914062 25.671875 195.65625 25.640625 195.378906 25.351562 C 194.863281 24.804688 189.925781 18.550781 189.808594 18.292969 C 189.695312 18.042969 189.683594 17.214844 189.683594 9.730469 L 189.683594 1.441406 L 189.875 1.238281 L 190.0625 1.039062 L 193.042969 1.058594 L 196.019531 1.082031 L 196.324219 1.285156 C 196.519531 1.421875 199.910156 5.601562 206.074219 13.308594 C 211.273438 19.808594 215.550781 25.132812 215.582031 25.132812 C 215.613281 25.136719 215.640625 19.800781 215.640625 13.28125 L 215.640625 1.421875 L 216.019531 1.042969 L 218.878906 1.042969 C 221.621094 1.042969 221.742188 1.050781 221.886719 1.195312 C 221.972656 1.277344 222.058594 1.425781 222.082031 1.523438 C 222.105469 1.617188 222.113281 9.222656 222.101562 18.421875 L 222.082031 35.140625 L 221.730469 35.492188 L 218.976562 35.503906 C 217.460938 35.511719 216.101562 35.488281 215.960938 35.453125 Z M 236.691406 35.417969 C 236.578125 35.355469 236.46875 35.257812 236.445312 35.199219 C 236.421875 35.140625 236.378906 28.816406 236.347656 21.148438 L 236.292969 7.203125 L 231.789062 7.203125 C 226.863281 7.203125 226.863281 7.203125 226.683594 6.765625 C 226.613281 6.601562 226.59375 5.855469 226.609375 3.988281 L 226.632812 1.441406 L 227.007812 1.042969 L 249.6875 1.042969 L 250.027344 1.207031 C 250.3125 1.34375 250.6875 1.773438 252.351562 3.84375 C 253.441406 5.203125 254.398438 6.410156 254.472656 6.523438 C 254.640625 6.78125 254.574219 7.03125 254.3125 7.128906 C 254.199219 7.171875 251.816406 7.203125 248.453125 7.203125 L 242.785156 7.203125 L 242.832031 35.140625 L 242.480469 35.492188 L 239.6875 35.511719 C 237.367188 35.527344 236.859375 35.507812 236.6875 35.417969 Z M 103.945312 -27.472656 C 103.445312 -27.613281 102.875 -27.925781 102.503906 -28.261719 C 102.21875 -28.523438 62.457031 -78.078125 61.789062 -79.011719 C 61.640625 -79.21875 61.4375 -79.589844 61.34375 -79.839844 L 61.171875 -80.289062 L 61.152344 -105.097656 C 61.128906 -132.363281 61.09375 -130.296875 61.601562 -130.558594 C 61.933594 -130.730469 62.28125 -130.65625 62.574219 -130.34375 C 62.703125 -130.207031 81.144531 -107.222656 103.550781 -79.269531 C 137.773438 -36.570312 144.289062 -28.402344 144.289062 -28.207031 C 144.289062 -27.886719 144.109375 -27.566406 143.867188 -27.457031 C 143.5625 -27.316406 104.441406 -27.335938 103.945312 -27.472656 Z M 132.359375 -62.449219 C 132.113281 -62.648438 132.003906 -62.917969 132.054688 -63.1875 C 132.085938 -63.359375 139.957031 -73.230469 158.910156 -96.878906 C 173.65625 -115.273438 185.789062 -130.394531 185.875 -130.480469 C 185.980469 -130.589844 186.125 -130.636719 186.375 -130.636719 C 186.675781 -130.636719 186.761719 -130.597656 186.953125 -130.382812 L 187.175781 -130.132812 L 187.175781 -105.324219 C 187.175781 -78.894531 187.195312 -80.234375 186.820312 -79.441406 C 186.636719 -79.054688 174.210938 -63.535156 173.757812 -63.132812 C 173.578125 -62.96875 173.195312 -62.726562 172.917969 -62.59375 L 172.40625 -62.351562 L 152.464844 -62.335938 C 133.652344 -62.316406 132.515625 -62.324219 132.359375 -62.449219 Z M 132.359375 -62.449219 " fill-opacity="1" fill-rule="nonzero"/><path fill="#ffffff" d="M 98.699219 36.300781 C 94.257812 35.839844 90.375 33.972656 87.320312 30.824219 C 84.570312 27.992188 82.875 24.457031 82.339844 20.441406 C 82.183594 19.269531 82.21875 16.90625 82.414062 15.625 C 82.707031 13.695312 83.25 11.976562 84.121094 10.21875 C 86.867188 4.683594 92.1875 0.976562 98.398438 0.269531 C 99.597656 0.132812 102.273438 0.210938 103.40625 0.414062 C 106.398438 0.953125 108.960938 2.066406 111.382812 3.882812 C 112.289062 4.5625 113.8125 6.046875 114.511719 6.933594 C 115.710938 8.445312 116.902344 10.589844 117.480469 12.277344 C 119.464844 18.0625 118.507812 24.253906 114.871094 29.121094 C 114.105469 30.148438 112.324219 31.9375 111.351562 32.664062 C 108.800781 34.5625 105.957031 35.753906 102.941406 36.1875 C 101.902344 36.335938 99.636719 36.394531 98.699219 36.300781 Z M 102.648438 29.992188 C 104.746094 29.546875 106.675781 28.53125 108.214844 27.0625 C 110.207031 25.164062 111.410156 22.902344 111.867188 20.210938 C 112.046875 19.136719 112.03125 17.257812 111.828125 16.132812 C 111.09375 12.0625 108.289062 8.566406 104.601562 7.128906 C 100.253906 5.429688 95.550781 6.410156 92.257812 9.703125 C 91.230469 10.730469 90.578125 11.632812 89.980469 12.859375 C 89.460938 13.917969 89.191406 14.683594 88.976562 15.703125 C 88.117188 19.816406 89.3125 23.871094 92.253906 26.796875 C 94.160156 28.695312 96.328125 29.777344 98.929688 30.140625 C 99.75 30.253906 101.792969 30.171875 102.648438 29.992188 Z M 1.839844 35.457031 C 1.746094 35.417969 1.613281 35.300781 1.546875 35.203125 C 1.441406 35.035156 1.429688 33.347656 1.449219 18.175781 L 1.46875 1.335938 L 1.648438 1.191406 C 1.820312 1.050781 1.992188 1.042969 4.667969 1.042969 C 7.347656 1.042969 7.515625 1.050781 7.6875 1.191406 L 7.871094 1.335938 L 7.910156 13.257812 L 7.945312 25.175781 L 17.484375 13.273438 C 25.886719 2.789062 27.0625 1.351562 27.363281 1.207031 C 27.699219 1.046875 27.78125 1.042969 31.335938 1.042969 C 35.269531 1.042969 35.179688 1.03125 35.125 1.457031 C 35.109375 1.574219 29.878906 8.167969 21.703125 18.378906 C 10.835938 31.953125 8.242188 35.148438 7.972656 35.300781 L 7.640625 35.492188 L 4.824219 35.507812 C 3.257812 35.519531 1.933594 35.492188 1.839844 35.457031 Z M 19.03125 35.410156 C 18.914062 35.328125 18.859375 35.222656 18.878906 35.101562 C 18.90625 34.882812 44.886719 2.402344 45.433594 1.898438 C 45.632812 1.71875 46.027344 1.457031 46.308594 1.324219 L 46.824219 1.082031 L 49.515625 1.058594 L 52.203125 1.035156 L 52.570312 1.378906 L 52.570312 18.261719 C 52.570312 34.96875 52.570312 35.148438 52.417969 35.296875 C 52.335938 35.382812 52.1875 35.46875 52.089844 35.492188 C 51.992188 35.519531 50.683594 35.527344 49.175781 35.515625 L 46.4375 35.492188 L 46.09375 35.300781 C 45.804688 35.140625 44.941406 34.105469 41.066406 29.273438 L 36.386719 23.445312 L 31.722656 29.273438 C 27.96875 33.96875 26.992188 35.144531 26.722656 35.300781 L 26.382812 35.492188 L 22.796875 35.515625 C 19.582031 35.535156 19.191406 35.523438 19.03125 35.410156 Z M 46.074219 14.488281 L 46.054688 10.675781 L 43.046875 14.445312 C 41.390625 16.519531 40.046875 18.25 40.058594 18.292969 C 40.066406 18.335938 41.421875 20.050781 43.066406 22.109375 L 46.054688 25.847656 L 46.074219 22.074219 C 46.085938 19.996094 46.085938 16.582031 46.074219 14.488281 Z M 60.785156 35.441406 C 60.703125 35.394531 60.589844 35.304688 60.535156 35.238281 C 60.460938 35.140625 60.441406 31.625 60.441406 18.246094 L 60.441406 1.378906 L 60.617188 1.210938 C 60.792969 1.042969 60.824219 1.042969 63.644531 1.046875 C 66.714844 1.046875 66.679688 1.042969 66.839844 1.457031 C 66.894531 1.601562 66.917969 6.121094 66.917969 15.519531 L 66.917969 29.371094 L 81.570312 29.371094 L 81.699219 29.566406 C 81.820312 29.75 81.816406 29.773438 81.628906 30.046875 C 81.519531 30.203125 80.570312 31.410156 79.515625 32.722656 C 78 34.613281 77.53125 35.148438 77.253906 35.300781 L 76.910156 35.492188 L 68.925781 35.511719 C 63.214844 35.523438 60.898438 35.503906 60.785156 35.441406 Z M 124.722656 35.453125 C 124.632812 35.417969 124.5 35.308594 124.433594 35.210938 C 124.320312 35.050781 124.308594 33.546875 124.308594 18.304688 C 124.308594 0.429688 124.292969 1.230469 124.660156 1.089844 C 124.730469 1.066406 130.867188 1.042969 138.304688 1.042969 L 151.820312 1.042969 L 151.988281 1.222656 L 152.15625 1.398438 L 152.15625 9.320312 L 151.976562 9.628906 C 151.878906 9.800781 149.980469 12.207031 147.757812 14.980469 C 145.535156 17.75 143.714844 20.070312 143.714844 20.132812 C 143.71875 20.199219 146.363281 23.550781 149.59375 27.585938 C 152.828125 31.621094 155.476562 34.964844 155.484375 35.015625 C 155.503906 35.214844 155.457031 35.34375 155.335938 35.433594 C 155.242188 35.507812 154.40625 35.53125 151.777344 35.53125 C 148.210938 35.53125 147.929688 35.507812 147.5 35.203125 C 147.234375 35.011719 135.613281 20.535156 135.535156 20.296875 C 135.507812 20.207031 135.507812 20.0625 135.535156 19.972656 C 135.5625 19.882812 136.492188 18.679688 137.601562 17.296875 C 138.707031 15.914062 140.976562 13.078125 142.644531 10.992188 L 145.671875 7.203125 L 130.789062 7.203125 L 130.789062 21.15625 C 130.785156 32 130.765625 35.132812 130.691406 35.230469 C 130.46875 35.515625 130.316406 35.53125 127.574219 35.527344 C 126.097656 35.523438 124.816406 35.492188 124.722656 35.453125 Z M 161.296875 35.445312 C 161.210938 35.398438 161.101562 35.304688 161.046875 35.238281 C 160.96875 35.140625 160.949219 31.628906 160.949219 18.246094 L 160.949219 1.378906 L 161.132812 1.207031 L 161.3125 1.039062 L 164.273438 1.058594 C 167.214844 1.082031 167.238281 1.082031 167.523438 1.257812 C 167.886719 1.484375 194.609375 34.835938 194.644531 35.105469 C 194.660156 35.234375 194.609375 35.328125 194.480469 35.414062 C 194.3125 35.523438 193.894531 35.535156 190.714844 35.515625 L 187.136719 35.492188 L 186.800781 35.300781 C 186.53125 35.144531 185.550781 33.96875 181.800781 29.277344 L 177.136719 23.445312 L 172.457031 29.277344 C 168.582031 34.105469 167.71875 35.140625 167.429688 35.300781 L 167.082031 35.492188 L 164.265625 35.511719 C 162.300781 35.527344 161.40625 35.503906 161.296875 35.445312 Z M 170.546875 21.992188 C 172.453125 19.601562 173.5 18.234375 173.457031 18.179688 C 173.421875 18.132812 172.050781 16.417969 170.410156 14.371094 L 167.429688 10.648438 L 167.429688 18.253906 C 167.429688 22.671875 167.457031 25.832031 167.5 25.789062 C 167.535156 25.75 168.90625 24.039062 170.546875 21.992188 Z M 215.960938 35.457031 C 215.816406 35.421875 215.5625 35.292969 215.398438 35.171875 C 215.226562 35.046875 211.066406 29.914062 205.648438 23.144531 L 196.203125 11.335938 L 196.203125 18.296875 C 196.203125 24.472656 196.1875 25.277344 196.082031 25.429688 C 195.914062 25.671875 195.65625 25.640625 195.378906 25.351562 C 194.863281 24.804688 189.925781 18.550781 189.808594 18.292969 C 189.695312 18.042969 189.683594 17.214844 189.683594 9.730469 L 189.683594 1.441406 L 189.875 1.238281 L 190.0625 1.039062 L 193.042969 1.058594 L 196.019531 1.082031 L 196.324219 1.285156 C 196.519531 1.421875 199.910156 5.601562 206.074219 13.308594 C 211.273438 19.808594 215.550781 25.132812 215.582031 25.132812 C 215.613281 25.136719 215.640625 19.800781 215.640625 13.28125 L 215.640625 1.421875 L 216.019531 1.042969 L 218.878906 1.042969 C 221.621094 1.042969 221.742188 1.050781 221.886719 1.195312 C 221.972656 1.277344 222.058594 1.425781 222.082031 1.523438 C 222.105469 1.617188 222.113281 9.222656 222.101562 18.421875 L 222.082031 35.140625 L 221.730469 35.492188 L 218.976562 35.503906 C 217.460938 35.511719 216.101562 35.488281 215.960938 35.453125 Z M 236.691406 35.417969 C 236.578125 35.355469 236.46875 35.257812 236.445312 35.199219 C 236.421875 35.140625 236.378906 28.816406 236.347656 21.148438 L 236.292969 7.203125 L 231.789062 7.203125 C 226.863281 7.203125 226.863281 7.203125 226.683594 6.765625 C 226.613281 6.601562 226.59375 5.855469 226.609375 3.988281 L 226.632812 1.441406 L 227.007812 1.042969 L 249.6875 1.042969 L 250.027344 1.207031 C 250.3125 1.34375 250.6875 1.773438 252.351562 3.84375 C 253.441406 5.203125 254.398438 6.410156 254.472656 6.523438 C 254.640625 6.78125 254.574219 7.03125 254.3125 7.128906 C 254.199219 7.171875 251.816406 7.203125 248.453125 7.203125 L 242.785156 7.203125 L 242.832031 35.140625 L 242.480469 35.492188 L 239.6875 35.511719 C 237.367188 35.527344 236.859375 35.507812 236.6875 35.417969 Z M 103.945312 -27.472656 C 103.445312 -27.613281 102.875 -27.925781 102.503906 -28.261719 C 102.21875 -28.523438 62.457031 -78.078125 61.789062 -79.011719 C 61.640625 -79.21875 61.4375 -79.589844 61.34375 -79.839844 L 61.171875 -80.289062 L 61.152344 -105.097656 C 61.128906 -132.363281 61.09375 -130.296875 61.601562 -130.558594 C 61.933594 -130.730469 62.28125 -130.65625 62.574219 -130.34375 C 62.703125 -130.207031 81.144531 -107.222656 103.550781 -79.269531 C 137.773438 -36.570312 144.289062 -28.402344 144.289062 -28.207031 C 144.289062 -27.886719 144.109375 -27.566406 143.867188 -27.457031 C 143.5625 -27.316406 104.441406 -27.335938 103.945312 -27.472656 Z M 132.359375 -62.449219 C 132.113281 -62.648438 132.003906 -62.917969 132.054688 -63.1875 C 132.085938 -63.359375 139.957031 -73.230469 158.910156 -96.878906 C 173.65625 -115.273438 185.789062 -130.394531 185.875 -130.480469 C 185.980469 -130.589844 186.125 -130.636719 186.375 -130.636719 C 186.675781 -130.636719 186.761719 -130.597656 186.953125 -130.382812 L 187.175781 -130.132812 L 187.175781 -105.324219 C 187.175781 -78.894531 187.195312 -80.234375 186.820312 -79.441406 C 186.636719 -79.054688 174.210938 -63.535156 173.757812 -63.132812 C 173.578125 -62.96875 173.195312 -62.726562 172.917969 -62.59375 L 172.40625 -62.351562 L 152.464844 -62.335938 C 133.652344 -62.316406 132.515625 -62.324219 132.359375 -62.449219 Z M 132.359375 -62.449219 " fill-opacity="1" fill-rule="nonzero"/></g></svg>