<?xml version="1.0" encoding="UTF-8" standalone="no"?>
<!-- Created with Inkscape (http://www.inkscape.org/) -->

<svg
   width="110.54907mm"
   height="90.700378mm"
   viewBox="0 0 110.54907 90.700378"
   version="1.1"
   id="svg5"
   xml:space="preserve"
   sodipodi:docname="Valorant logotipo.svg"
   inkscape:version="1.2.2 (732a01da63, 2022-12-09)"
   xmlns:inkscape="http://www.inkscape.org/namespaces/inkscape"
   xmlns:sodipodi="http://sodipodi.sourceforge.net/DTD/sodipodi-0.dtd"
   xmlns="http://www.w3.org/2000/svg"
   xmlns:svg="http://www.w3.org/2000/svg"><sodipodi:namedview
     id="namedview6"
     pagecolor="#ffffff"
     bordercolor="#000000"
     borderopacity="0.25"
     inkscape:showpageshadow="2"
     inkscape:pageopacity="0.0"
     inkscape:pagecheckerboard="0"
     inkscape:deskcolor="#d1d1d1"
     inkscape:document-units="mm"
     showgrid="false"
     inkscape:zoom="1.9165438"
     inkscape:cx="196.44737"
     inkscape:cy="171.1414"
     inkscape:window-width="1600"
     inkscape:window-height="837"
     inkscape:window-x="-8"
     inkscape:window-y="-8"
     inkscape:window-maximized="1"
     inkscape:current-layer="svg5" /><defs
     id="defs2" /><g
     id="layer1"
     transform="translate(-36.851914,-51.204264)"
     style="fill:#fffbfb;fill-opacity:1"><path
       style="fill:#fffbfb;stroke-width:0.264583;fill-opacity:1"
       d="M 73.550614,141.44161 C 73.16626,141.1879 68.753033,135.86064 63.743444,129.60324 44.204657,105.19766 37.634025,96.953408 37.229095,96.335408 c -0.378195,-0.57719 -0.414322,-2.91118 -0.35357,-22.84225 0.06217,-20.39763 0.103142,-22.2062 0.504764,-22.28353 0.30437,-0.0586 4.241142,4.67836 12.964584,15.59977 6.890117,8.62616 14.541722,18.18741 17.003564,21.24722 6.725854,8.35953 37.546143,46.944082 40.160463,50.277702 1.6837,2.14697 2.21026,2.99703 2.00767,3.24115 -0.21474,0.25874 -4.09008,0.33052 -17.770875,0.32916 -16.192547,-0.002 -17.548325,-0.0361 -18.195081,-0.46302 z m 25.526851,-30.63994 c -0.0782,-0.20371 0.25558,-0.87872 0.74166,-1.50003 3.933075,-5.0272 44.652605,-55.888872 45.795245,-57.201622 0.63108,-0.72503 1.03816,-0.98718 1.34821,-0.8682 0.41085,0.15766 0.44368,1.78305 0.43784,21.67614 -0.003,11.82814 -0.10934,21.94931 -0.23527,22.4915 -0.16253,0.69973 -1.72801,2.84952 -5.39479,7.408332 -2.8412,3.5324 -5.52031,6.83926 -5.95358,7.34858 l -0.78775,0.92604 -17.90472,0.0448 c -15.1318,0.0379 -17.926725,-0.0125 -18.046845,-0.32556 z"
       id="path125" /></g></svg>
